<svg xmlns="http://www.w3.org/2000/svg" width="800" height="600" viewBox="0 0 800 600">
  <defs>
    <linearGradient id="bg" x1="0%" y1="0%" x2="0%" y2="100%">
      <stop offset="0%" style="stop-color:#f0f2f5"/>
      <stop offset="100%" style="stop-color:#e1e4e8"/>
    </linearGradient>
    <linearGradient id="header" x1="0%" y1="0%" x2="100%" y2="100%">
      <stop offset="0%" style="stop-color:#2563eb"/>
      <stop offset="100%" style="stop-color:#1e40af"/>
    </linearGradient>
    <filter id="shadow" x="-50%" y="-50%" width="200%" height="200%">
      <feDropShadow dx="0" dy="4" stdDeviation="8" flood-opacity="0.15"/>
    </filter>
  </defs>
  
  <!-- Background -->
  <rect width="800" height="600" fill="url(#bg)"/>
  
  <!-- Phone Frame -->
  <rect x="200" y="40" width="400" height="520" rx="36" fill="#111827" filter="url(#shadow)"/>
  <rect x="212" y="52" width="376" height="496" rx="28" fill="#f9fafb"/>
  
  <!-- Notch/Status Bar Area (Simulated) -->
  <path d="M 350 52 h 100 v 0 a 0 0 0 0 1 0 0 h 0 a 0 0 0 0 1 -0 0 v -0 z" fill="black"/> 

  <!-- App Header -->
  <rect x="212" y="52" width="376" height="70" rx="0" fill="url(#header)"/>
  <!-- Rounded corners fix for top -->
  <path d="M 212 80 V 70 a 28 28 0 0 1 28 -28 h 320 a 28 28 0 0 1 28 28 v 10 z" fill="#2563eb"/>
  
  <text x="400" y="95" font-family="'Segoe UI', Roboto, Helvetica, Arial, sans-serif" font-size="22" font-weight="700" fill="white" text-anchor="middle" letter-spacing="0.5">
    🕐 Orari Lavoro
  </text>
  
  <!-- Week Nav -->
  <rect x="228" y="135" width="344" height="50" rx="12" fill="white" filter="url(#shadow)"/>
  <text x="255" y="165" font-family="Arial, sans-serif" font-size="16" fill="#6b7280">◀</text>
  <text x="400" y="158" font-family="'Segoe UI', sans-serif" font-size="16" font-weight="600" fill="#1f2937" text-anchor="middle">
    Settimana 6
  </text>
  <text x="400" y="176" font-family="Arial, sans-serif" font-size="12" fill="#6b7280" text-anchor="middle">
    Febbraio 2026
  </text>
  <text x="545" y="165" font-family="Arial, sans-serif" font-size="16" fill="#6b7280" text-anchor="end">▶</text>

  <!-- Day Cards Container -->
  <g transform="translate(228, 200)">
    <!-- Lunedì -->
    <rect x="0" y="0" width="62" height="90" rx="8" fill="white" stroke="#e5e7eb" stroke-width="1"/>
    <text x="31" y="20" font-family="Arial, sans-serif" font-size="10" font-weight="bold" fill="#6b7280" text-anchor="middle">LUN 02</text>
    <rect x="8" y="32" width="46" height="18" rx="4" fill="#d1fae5"/>
    <text x="31" y="44" font-family="Arial, sans-serif" font-size="10" font-weight="600" fill="#059669" text-anchor="middle">08:00</text>
    <rect x="8" y="55" width="46" height="18" rx="4" fill="#fee2e2"/>
    <text x="31" y="67" font-family="Arial, sans-serif" font-size="10" font-weight="600" fill="#dc2626" text-anchor="middle">17:00</text>
    
    <!-- Martedì -->
    <rect x="70" y="0" width="62" height="90" rx="8" fill="white" stroke="#e5e7eb" stroke-width="1"/>
    <text x="101" y="20" font-family="Arial, sans-serif" font-size="10" font-weight="bold" fill="#6b7280" text-anchor="middle">MAR 03</text>
    <rect x="78" y="32" width="46" height="18" rx="4" fill="#d1fae5"/>
    <text x="101" y="44" font-family="Arial, sans-serif" font-size="10" font-weight="600" fill="#059669" text-anchor="middle">08:30</text>
    <rect x="78" y="55" width="46" height="18" rx="4" fill="#fee2e2"/>
    <text x="101" y="67" font-family="Arial, sans-serif" font-size="10" font-weight="600" fill="#dc2626" text-anchor="middle">16:30</text>

    <!-- Mercoledì (Smart) -->
    <rect x="141" y="0" width="62" height="90" rx="8" fill="#f5f3ff" stroke="#8b5cf6" stroke-width="1"/>
    <text x="172" y="20" font-family="Arial, sans-serif" font-size="10" font-weight="bold" fill="#7c3aed" text-anchor="middle">MER 04</text>
    <text x="172" y="50" font-size="22" text-anchor="middle">🏠</text>
    <text x="172" y="75" font-family="Arial, sans-serif" font-size="11" font-weight="bold" fill="#7c3aed" text-anchor="middle">7h 30m</text>

    <!-- Giovedì -->
    <rect x="212" y="0" width="62" height="90" rx="8" fill="white" stroke="#e5e7eb" stroke-width="1"/>
    <text x="243" y="20" font-family="Arial, sans-serif" font-size="10" font-weight="bold" fill="#6b7280" text-anchor="middle">GIO 05</text>
    <rect x="220" y="32" width="46" height="18" rx="4" fill="#d1fae5"/>
    <text x="243" y="44" font-family="Arial, sans-serif" font-size="10" font-weight="600" fill="#059669" text-anchor="middle">09:00</text>
    <rect x="220" y="55" width="46" height="18" rx="4" fill="#fee2e2"/>
    <text x="243" y="67" font-family="Arial, sans-serif" font-size="10" font-weight="600" fill="#dc2626" text-anchor="middle">18:00</text>

    <!-- Venerdì -->
    <rect x="282" y="0" width="62" height="90" rx="8" fill="white" stroke="#e5e7eb" stroke-width="1"/>
    <text x="313" y="20" font-family="Arial, sans-serif" font-size="10" font-weight="bold" fill="#6b7280" text-anchor="middle">VEN 06</text>
    <rect x="290" y="32" width="46" height="18" rx="4" fill="#d1fae5"/>
    <text x="313" y="44" font-family="Arial, sans-serif" font-size="10" font-weight="600" fill="#059669" text-anchor="middle">08:00</text>
    <rect x="290" y="55" width="46" height="18" rx="4" fill="#fee2e2"/>
    <text x="313" y="67" font-family="Arial, sans-serif" font-size="10" font-weight="600" fill="#dc2626" text-anchor="middle">14:00</text>
  </g>

  <!-- Summary Card (Clean Layout) -->
  <rect x="228" y="310" width="344" height="85" rx="12" fill="white" filter="url(#shadow)"/>
  
  <!-- Divider -->
  <line x1="400" y1="325" x2="400" y2="380" stroke="#e5e7eb" stroke-width="1"/>

  <!-- Totale -->
  <text x="314" y="335" font-family="Arial, sans-serif" font-size="12" fill="#6b7280" text-anchor="middle" text-transform="uppercase">Totale Ore</text>
  <text x="314" y="365" font-family="'Segoe UI', sans-serif" font-size="28" font-weight="700" fill="#1f2937" text-anchor="middle">37:30</text>
  <text x="314" y="382" font-family="Arial, sans-serif" font-size="11" fill="#9ca3af" text-anchor="middle">su 36:00</text>

  <!-- Saldo -->
  <text x="486" y="335" font-family="Arial, sans-serif" font-size="12" fill="#6b7280" text-anchor="middle" text-transform="uppercase">Saldo</text>
  <text x="486" y="365" font-family="'Segoe UI', sans-serif" font-size="28" font-weight="700" fill="#10b981" text-anchor="middle">+1:30</text>
  <rect x="525" y="350" width="20" height="20" rx="10" fill="#d1fae5"/>
  <text x="535" y="364" font-size="12" text-anchor="middle">✅</text>

  <!-- Buttons Grid -->
  <g transform="translate(228, 415)">
    <!-- Entrata -->
    <rect x="0" y="0" width="166" height="48" rx="10" fill="#10b981"/>
    <text x="83" y="30" font-family="Arial, sans-serif" font-size="15" font-weight="bold" fill="white" text-anchor="middle">🟢 ENTRATA</text>
    
    <!-- Uscita -->
    <rect x="178" y="0" width="166" height="48" rx="10" fill="#ef4444"/>
    <text x="261" y="30" font-family="Arial, sans-serif" font-size="15" font-weight="bold" fill="white" text-anchor="middle">🔴 USCITA</text>
    
    <!-- Smart -->
    <rect x="0" y="60" width="166" height="48" rx="10" fill="#8b5cf6"/>
    <text x="83" y="30" font-family="Arial, sans-serif" font-size="15" font-weight="bold" fill="white" text-anchor="middle" transform="translate(0,60)">🏠 SMART</text>
    
    <!-- Export -->
    <rect x="178" y="60" width="166" height="48" rx="10" fill="#f59e0b"/>
    <text x="261" y="30" font-family="Arial, sans-serif" font-size="15" font-weight="bold" fill="white" text-anchor="middle" transform="translate(0,60)">📤 EXPORT</text>
  </g>

</svg>
